# xmcd
#
# Track frame offsets:
#	150
#	16925
#	28975
#	47361
#	69664
#	86819
#	139180
#	157759
#	179920
#	193394
#	205042
#	223303
#	241904
#	261781
#	276443
#	288300
#	304649
#	315509
#	328607
#	340139
#
# Disc length: 4701 seconds
#
# Revision: 5
# Processed by: cddbd v1.5.1PL0 Copyright (c) Steve Scherf et al.
# Submitted via: audiograbber 1.83.01
#
DISCID=32125b14,36125b14
DTITLE=Various Artist - Oldie Fete 2000
DYEAR=2000
DGENRE=Oldies
TTITLE0=Village People  - Y.M.C.A.
TTITLE1=Middle Of The Road - Samson and Delilah
TTITLE2=Hot Chocolate - You Sexy Thing
TTITLE3=Toto - Africa
TTITLE4=Pointer Sisters - Slow Hand
TTITLE5=Stars on 45 - Abba Medley
TTITLE6=Don McLean - American Pie
TTITLE7=Canned Heat - On The Road Again
TTITLE8=Scott McKenzie - San Francisco
TTITLE9=Cher - Gypsys, Tramps and Thieves
TTITLE10=Hollies - The Air That I Breathe
TTITLE11=Santana - Jingo
TTITLE12=Arlo Guthrie - City Of New Orleans
TTITLE13=Neil Diamound - Song Sung Blue
TTITLE14=Gilbert O´Sullivan - Get Down
TTITLE15=Albert Hammond - It Never Rains In Southern California
TTITLE16=Billy Joe Rojal - Hush
TTITLE17=Spencer Davis Group - Gimme Some Lovin´
TTITLE18=Manfred Mann - Pretty Flamingo
TTITLE19=Aretha Franklin - Chain Of Fools
EXTD=
EXTT0=
EXTT1=
EXTT2=
EXTT3=
EXTT4=
EXTT5=
EXTT6=
EXTT7=
EXTT8=
EXTT9=
EXTT10=
EXTT11=
EXTT12=
EXTT13=
EXTT14=
EXTT15=
EXTT16=
EXTT17=
EXTT18=
EXTT19=
PLAYORDER=
